<svg width="100" height="40" viewBox="0 0 100 40" fill="none" xmlns="http://www.w3.org/2000/svg">
<rect width="100" height="40" fill="#CC0000"/>
<path d="M16.1 31V9.1H22.1V31H16.1ZM3.8 31V9.1H9.8V31H3.8ZM6.8 22.3V17.2H19.1V22.3H6.8ZM35.0141 31.3C32.6341 31.3 30.5841 30.86 28.8641 29.98C27.1641 29.08 25.8641 27.79 24.9641 26.11C24.0641 24.43 23.6141 22.41 23.6141 20.05C23.6141 17.69 24.0641 15.67 24.9641 13.99C25.8641 12.31 27.1641 11.03 28.8641 10.15C30.5841 9.25 32.6341 8.8 35.0141 8.8C37.4141 8.8 39.4641 9.25 41.1641 10.15C42.8641 11.03 44.1641 12.31 45.0641 13.99C45.9641 15.67 46.4141 17.69 46.4141 20.05C46.4141 22.41 45.9641 24.43 45.0641 26.11C44.1641 27.79 42.8641 29.08 41.1641 29.98C39.4641 30.86 37.4141 31.3 35.0141 31.3ZM35.0141 26.2C36.1741 26.2 37.1441 25.97 37.9241 25.51C38.7041 25.05 39.2841 24.37 39.6641 23.47C40.0641 22.55 40.2641 21.41 40.2641 20.05C40.2641 18.69 40.0641 17.56 39.6641 16.66C39.2841 15.74 38.7041 15.05 37.9241 14.59C37.1441 14.13 36.1741 13.9 35.0141 13.9C33.8541 13.9 32.8841 14.13 32.1041 14.59C31.3241 15.05 30.7341 15.74 30.3341 16.66C29.9541 17.56 29.7641 18.69 29.7641 20.05C29.7641 21.41 29.9541 22.55 30.3341 23.47C30.7341 24.37 31.3241 25.05 32.1041 25.51C32.8841 25.97 33.8541 26.2 35.0141 26.2ZM47.9234 31V9.1H54.0734V25.9H64.4234V31H47.9234ZM65.0253 31L71.7753 9.1H79.8753L86.6253 31H80.0253L75.8553 14.2H75.7953L71.6253 31H65.0253ZM69.9753 26.95V22H81.6753V26.95H69.9753ZM88.498 23.5L87.598 9.1H94.798L93.898 23.5H88.498ZM91.198 31.3C90.158 31.3 89.348 31.04 88.768 30.52C88.188 29.98 87.898 29.24 87.898 28.3C87.898 27.36 88.188 26.63 88.768 26.11C89.348 25.57 90.158 25.3 91.198 25.3C92.238 25.3 93.048 25.57 93.628 26.11C94.208 26.63 94.498 27.36 94.498 28.3C94.498 29.24 94.208 29.98 93.628 30.52C93.048 31.04 92.238 31.3 91.198 31.3Z" fill="white"/>
</svg>
